<?xml version="1.0" encoding="UTF-8"?>
<svg width="870px" height="507px" viewBox="0 0 870 507" version="1.1" xmlns="http://www.w3.org/2000/svg" xmlns:xlink="http://www.w3.org/1999/xlink">
    <!-- Generator: Sketch 48.2 (47327) - http://www.bohemiancoding.com/sketch -->
    <title>Graphic</title>
    <desc>Created with Sketch.</desc>
    <defs></defs>
    <g id="Desktop-Copy" stroke="none" stroke-width="1" fill="none" fill-rule="evenodd" transform="translate(-58.000000, -176.000000)">
        <g id="Graphic" transform="translate(54.000000, 172.000000)">
            <text id="26%-boost-in-convers" font-family="Lato-Regular, Lato" font-size="17" font-weight="normal" fill="#3C3C3C" fill-opacity="0.660807292">
                <tspan x="327" y="61">26% boost in conversion rate</tspan>
            </text>
            <text id="55%-of-bookings-are" font-family="Lato-Regular, Lato" font-size="17" font-weight="normal" fill="#3C3C3C" fill-opacity="0.660807292">
                <tspan x="680" y="264">55% of bookings are made</tspan>
                <tspan x="680" y="285">outside business hours</tspan>
            </text>
            <text id="2.4%-decrease-in-ann" font-family="Lato-Regular, Lato" font-size="17" font-weight="normal" fill="#3C3C3C" fill-opacity="0.660807292">
                <tspan x="3.707" y="264">2.4% decrease in annual </tspan>
                <tspan x="88.367" y="285">support cost</tspan>
            </text>
            <text id="Up-to-400%-increase" font-family="Lato-Regular, Lato" font-size="17" font-weight="normal" fill="#3C3C3C" fill-opacity="0.660807292">
                <tspan x="70.136" y="471">Up to 400% increase in </tspan>
                <tspan x="124.876" y="492">conversion rate</tspan>
            </text>
            <text id="40%-increase-in-conv" font-family="Lato-Regular, Lato" font-size="17" font-weight="normal" fill="#3C3C3C" fill-opacity="0.660807292">
                <tspan x="629" y="460">40% increase in </tspan>
                <tspan x="629" y="481">conversion rate</tspan>
            </text>
            <path d="M569.673707,405.569031 C559.950171,398.901266 548.18068,395 535.5,395 C502.086773,395 475,422.086773 475,455.5 C475,458.560882 475.227307,461.568673 475.665963,464.507414 C463.086562,467.44599 449.97476,469 436.5,469 C421.189123,469 406.346861,466.993627 392.221789,463.229457 C392.733857,460.061946 393,456.812053 393,453.5 C393,420.086773 365.913227,393 332.5,393 C320.783215,393 309.844359,396.330714 300.578601,402.096975 C282.977011,379.258007 271.003159,351.858543 266.733159,321.974696 C267.320051,321.991527 267.909036,322 268.5,322 C301.913227,322 329,294.913227 329,261.5 C329,236.296979 313.589185,214.693347 291.676709,205.598258 C311.087945,175.072901 339.884662,151.100349 374.004635,137.742828 C374.00155,137.994849 374,138.247243 374,138.5 C374,171.913227 401.086773,199 434.5,199 C467.913227,199 495,171.913227 495,138.5 C495,137.736921 494.985873,136.977142 494.957865,136.22091 C529.439608,148.721919 558.772119,171.96641 578.910592,201.909571 C554.5923,209.753272 537,232.572185 537,259.5 C537,292.913227 564.086773,320 597.5,320 C600.601889,320 603.649256,319.766561 606.62549,319.316293 C602.505093,351.771127 589.31417,381.395697 569.673707,405.569031 Z" id="Combined-Shape" fill="#D8D8D8"></path>
            <circle id="Oval-2" fill="#DDDDDD" cx="436" cy="298" r="166"></circle>
            <circle id="Oval" fill="#9BBB5C" cx="434" cy="139" r="55"></circle>
            <circle id="Oval-Copy" fill="#F29B26" cx="598" cy="260" r="55"></circle>
            <g id="Group-2" opacity="0.88892663" transform="translate(414.000000, 119.000000)" stroke="#FFFFFF" stroke-width="1.5">
                <circle id="Oval" cx="5.5" cy="5.5" r="4.75"></circle>
                <circle id="Oval-Copy" cx="21.5" cy="20.5" r="4.75"></circle>
                <circle id="Oval-Copy-2" cx="35.5" cy="34.5" r="4.75"></circle>
                <path d="M10,6 L40,6" id="Line" stroke-linecap="square"></path>
                <path d="M27,19.5 L41,19.5" id="Line-Copy" stroke-linecap="square"></path>
                <path d="M0,19.5 L16.2916667,19.5" id="Line-Copy-3" stroke-linecap="square"></path>
                <path d="M0,34.5 L30,34.5" id="Line-Copy-2" stroke-linecap="square"></path>
            </g>
            <circle id="Oval-Copy-3" fill="#435469" cx="332" cy="454" r="55"></circle>
            <circle id="Oval-Copy-4" stroke="#979797" fill="#1EA085" cx="268" cy="262" r="55"></circle>
            <circle id="Oval-Copy-2" fill="#BD392F" cx="536" cy="456" r="55"></circle>
            <text id="Filter" font-family="Lato-Bold, Lato" font-size="17" font-weight="bold" fill="#3C3C3C">
                <tspan x="416" y="17">Filter</tspan>
            </text>
            <text id="Online-Scheduling" font-family="Lato-Bold, Lato" font-size="17" font-weight="bold" fill="#3C3C3C">
                <tspan x="680" y="222">Online Scheduling</tspan>
            </text>
            <text id="Live-Messaging" font-family="Lato-Bold, Lato" font-size="17" font-weight="bold" fill="#3C3C3C">
                <tspan x="622" y="422">Live Messaging</tspan>
            </text>
            <text id="Voice-&amp;-Video-Chat" font-family="Lato-Bold, Lato" font-size="17" font-weight="bold" fill="#3C3C3C">
                <tspan x="90" y="430">Voice &amp; Video Chat</tspan>
            </text>
            <text id="Screen-Sharing" font-family="Lato-Bold, Lato" font-size="17" font-weight="bold" fill="#3C3C3C">
                <tspan x="66.0095" y="224">Screen Sharing</tspan>
            </text>
            <path d="M582.97861,242.03877 C582.97861,241.076203 582.97861,240.274064 582.97861,239.391711 C582.97861,237.065508 584.743316,235.220588 586.989305,235.06016 C587.791444,234.979947 588.513369,234.979947 589.315508,235.06016 C591.641711,235.220588 593.326203,237.065508 593.326203,239.391711 C593.326203,240.19385 593.326203,241.076203 593.326203,241.958556 C596.855615,241.958556 600.224599,241.958556 603.754011,241.958556 C603.754011,241.156417 603.754011,240.354278 603.754011,239.552139 C603.754011,236.985294 605.518717,235.140374 608.085561,235.06016 C608.727273,235.06016 609.449198,235.06016 610.090909,235.06016 C612.417112,235.220588 614.101604,237.065508 614.101604,239.391711 C614.101604,240.19385 614.101604,241.076203 614.101604,242.03877 C615.224599,242.03877 616.26738,242.03877 617.229947,242.03877 C619.55615,242.03877 621,243.48262 621,245.808824 C621,257.199198 621,268.509358 621,279.899733 C621,282.145722 619.55615,283.669786 617.31016,283.669786 C604.796791,283.669786 592.203209,283.669786 579.68984,283.669786 C577.44385,283.669786 576,282.225936 576,279.899733 C576,268.509358 576,257.118984 576,245.72861 C576,243.48262 577.44385,242.03877 579.68984,242.03877 C580.73262,242.03877 581.775401,242.03877 582.97861,242.03877 Z M597.657754,270.59492 C597.657754,267.707219 597.657754,264.899733 597.657754,262.012032 C594.770053,262.012032 591.962567,262.012032 589.074866,262.012032 C589.074866,264.899733 589.074866,267.787433 589.074866,270.59492 C591.962567,270.59492 594.770053,270.59492 597.657754,270.59492 Z M599.502674,262.012032 C599.502674,264.899733 599.502674,267.787433 599.502674,270.59492 C602.390374,270.59492 605.197861,270.59492 608.085561,270.59492 C608.085561,267.707219 608.085561,264.899733 608.085561,262.012032 C605.197861,262.012032 602.31016,262.012032 599.502674,262.012032 Z M587.229947,270.59492 C587.229947,267.707219 587.229947,264.819519 587.229947,262.012032 C584.663102,262.012032 582.096257,262.012032 579.529412,262.012032 C579.529412,264.899733 579.529412,267.707219 579.529412,270.59492 C582.096257,270.59492 584.582888,270.59492 587.229947,270.59492 Z M617.631016,262.012032 C614.983957,262.012032 612.417112,262.012032 609.930481,262.012032 C609.930481,264.899733 609.930481,267.787433 609.930481,270.59492 C612.57754,270.59492 615.064171,270.59492 617.631016,270.59492 C617.631016,267.707219 617.631016,264.899733 617.631016,262.012032 Z M608.005348,280.140374 C608.005348,277.493316 608.005348,274.926471 608.005348,272.359626 C605.117647,272.359626 602.31016,272.359626 599.42246,272.359626 C599.42246,274.926471 599.42246,277.493316 599.42246,280.140374 C602.31016,280.140374 605.117647,280.140374 608.005348,280.140374 Z M589.074866,272.43984 C589.074866,275.086898 589.074866,277.653743 589.074866,280.220588 C591.962567,280.220588 594.770053,280.220588 597.657754,280.220588 C597.657754,277.653743 597.657754,275.086898 597.657754,272.43984 C594.770053,272.43984 591.962567,272.43984 589.074866,272.43984 Z M597.657754,252.466578 C594.68984,252.466578 591.882353,252.466578 589.074866,252.466578 C589.074866,255.033422 589.074866,257.600267 589.074866,260.167112 C591.962567,260.167112 594.850267,260.167112 597.657754,260.167112 C597.657754,257.600267 597.657754,255.033422 597.657754,252.466578 Z M599.502674,252.466578 C599.502674,255.113636 599.502674,257.680481 599.502674,260.247326 C602.390374,260.247326 605.197861,260.247326 608.085561,260.247326 C608.085561,257.680481 608.085561,255.113636 608.085561,252.466578 C605.197861,252.466578 602.31016,252.466578 599.502674,252.466578 Z M609.850267,280.140374 C612.497326,280.140374 614.983957,280.140374 617.631016,280.140374 C617.631016,277.573529 617.631016,275.006684 617.631016,272.43984 C614.983957,272.43984 612.497326,272.43984 609.850267,272.43984 C609.850267,275.006684 609.850267,277.573529 609.850267,280.140374 Z M587.229947,272.43984 C584.663102,272.43984 582.096257,272.43984 579.529412,272.43984 C579.529412,275.006684 579.529412,277.573529 579.529412,280.220588 C582.096257,280.220588 584.663102,280.220588 587.229947,280.220588 C587.229947,277.573529 587.229947,275.006684 587.229947,272.43984 Z M609.930481,252.466578 C609.930481,255.113636 609.930481,257.680481 609.930481,260.247326 C612.57754,260.247326 615.064171,260.247326 617.631016,260.247326 C617.631016,257.680481 617.631016,255.113636 617.631016,252.466578 C614.983957,252.466578 612.497326,252.466578 609.930481,252.466578 Z M579.529412,260.167112 C582.096257,260.167112 584.663102,260.167112 587.229947,260.167112 C587.229947,257.600267 587.229947,254.953209 587.229947,252.386364 C584.582888,252.386364 582.096257,252.386364 579.529412,252.386364 C579.529412,255.033422 579.529412,257.600267 579.529412,260.167112 Z M607.203209,243.241979 C607.203209,244.204545 607.203209,245.086898 607.203209,246.049465 C607.203209,248.135027 607.203209,248.135027 609.368984,248.135027 C610.491979,248.135027 610.73262,247.894385 610.73262,246.77139 C610.73262,244.846257 610.73262,242.840909 610.73262,240.915775 C610.73262,238.509358 610.73262,238.589572 608.406417,238.589572 C607.604278,238.589572 607.203209,238.990642 607.283422,239.712567 C607.203209,240.835561 607.203209,242.03877 607.203209,243.241979 Z M589.877005,243.322193 C589.877005,242.43984 589.877005,241.557487 589.877005,240.675134 C589.877005,238.589572 589.877005,238.589572 587.791444,238.589572 C586.588235,238.589572 586.427807,238.830214 586.427807,240.033422 C586.427807,241.958556 586.427807,243.963904 586.427807,245.889037 C586.427807,248.135027 586.427807,248.215241 588.754011,248.135027 C589.55615,248.135027 589.957219,247.733957 589.957219,247.012032 C589.877005,245.72861 589.877005,244.525401 589.877005,243.322193 Z" id="Shape" fill="#FFFFFF" fill-rule="nonzero" opacity="0.88892663"></path>
            <path d="M521.686911,467.884469 C520.081979,466.520277 518.477048,465.396825 517.112856,464.032633 C511.575841,458.415372 511.656088,450.7117 517.193102,445.094438 C520.804199,441.483342 525.298008,439.557424 530.193049,438.594465 C537.254749,437.310519 544.075709,438.032739 550.495436,441.483342 C552.822587,442.767287 554.908998,444.372219 556.594177,446.538877 C560.766999,452.075892 560.446013,458.575865 555.791711,463.6314 C552.501601,467.242497 548.248532,469.248661 543.594229,470.372113 C540.223873,471.174579 536.77327,471.335073 533.402913,471.014086 C532.841187,470.93384 532.359707,471.094333 531.878228,471.495566 C527.865898,474.865922 523.211596,476.872087 517.995568,477.7548 C517.353595,477.835046 516.872116,477.7548 516.55113,477.193073 C516.230143,476.711594 516.390636,476.230114 516.791869,475.748635 C517.433842,475.026416 518.075815,474.304196 518.717787,473.581977 C520.242473,471.896799 521.125185,469.890634 521.686911,467.884469 Z" id="Shape" fill="#FFFFFF" fill-rule="nonzero" opacity="0.88892663"></path>
            <g id="icon__phone" opacity="0.88892663" transform="translate(310.000000, 434.000000)" fill="#FFFFFF" fill-rule="nonzero">
                <path d="M0,10.8990429 C0,7.16511155 1.30964996,4.33943376 3.52598067,1.81650715 C5.13785755,0.201834128 7.35418826,0 9.57051897,0 C9.97348818,0 10.4771997,0.50458532 10.6786843,0.908253577 C11.5853651,2.42200954 12.3913035,4.03668256 13.2979842,5.55043853 C13.9024381,6.66052623 14.5068919,7.66969687 15.212088,8.67886751 C16.3202534,10.3944576 16.3202534,10.99996 14.8091188,12.3118818 C13.8016958,13.3210525 12.6935304,14.128389 11.5853651,15.0366426 C9.97348818,16.5503985 9.97348818,16.9540668 11.0816535,18.871491 C14.3054073,24.9265148 18.9395533,29.5686998 25.0848339,32.8989629 C26.9989377,33.9081335 27.5026492,34.0090506 28.9130415,32.2934605 C29.9204646,31.1833728 30.9278876,29.972368 31.9353107,28.8622803 C32.9427337,27.8531097 33.6479298,27.8531097 34.8568375,28.5595291 C37.3753951,29.972368 39.8939527,31.486124 42.4125104,32.8989629 C44.0243872,33.8072165 44.1251295,34.1099677 43.9236449,35.9264748 C43.621418,38.6512355 42.4125104,40.6695768 39.994695,42.0824157 C36.5694567,44.100757 33.043476,44.5044253 29.2152684,43.3943376 C18.0328726,40.0640744 9.97348818,32.7980458 4.1304345,23.0090906 C2.31707301,19.9815787 1.51113457,16.2476473 0.20148461,12.8164671 C0,12.1100477 0,11.4036282 0,10.8990429 Z" id="Shape"></path>
            </g>
            <g id="Group" opacity="0.88892663" transform="translate(244.000000, 243.000000)" fill="#FFFFFF" fill-rule="nonzero">
                <path d="M4,4.075 L4,32.075 L42,32.075 L42,4.075 L4,4.075 Z M4,0.075 L42,0.075 C44.209139,0.075 46,1.865861 46,4.075 L46,32.075 C46,34.284139 44.209139,36.075 42,36.075 L4,36.075 C1.790861,36.075 2.705415e-16,34.284139 0,32.075 L0,4.075 C-2.705415e-16,1.865861 1.790861,0.075 4,0.075 Z" id="Rectangle-6"></path>
                <path d="M11.5026862,44.1012995 C10.0003264,44.1012995 9.43088583,42.1379116 10.700108,41.3340709 L23.3732125,33.3077714 C23.8632575,32.9974095 24.4883237,32.9974095 24.9783687,33.3077714 L37.6514732,41.3340709 C38.9206954,42.1379116 38.3512549,44.1012995 36.8488951,44.1012995 L11.5026862,44.1012995 Z" id="Path-5"></path>
                <path d="M31.1834951,19.7003986 L20.2001379,25.4971705 C19.2012076,26.0243837 18,25.3001134 18,24.1705934 L18,12.5770497 C18,11.4475296 19.2012076,10.7232593 20.2001379,11.2504725 L31.1834951,17.0472444 C32.2499779,17.6101103 32.2499779,19.1375327 31.1834951,19.7003986 Z" id="Triangle"></path>
            </g>
        </g>
    </g>
</svg>