<?xml version="1.0" encoding="UTF-8"?>
<svg width="60px" height="60px" viewBox="0 0 60 60" version="1.1" xmlns="http://www.w3.org/2000/svg" xmlns:xlink="http://www.w3.org/1999/xlink">
    <!-- Generator: Sketch 48.2 (47327) - http://www.bohemiancoding.com/sketch -->
    <title>instagram</title>
    <desc>Created with Sketch.</desc>
    <defs></defs>
    <g id="Footer" stroke="none" stroke-width="1" fill="none" fill-rule="evenodd" transform="translate(-832.000000, -505.000000)">
        <g id="instagram" transform="translate(833.000000, 506.000000)">
            <path d="M29.0035694,20.7956042 C24.463246,20.7956042 20.8010039,24.4586634 20.8010039,29 C20.8010039,33.5413366 24.463246,37.2043958 29.0035694,37.2043958 C33.5438929,37.2043958 37.206135,33.5413366 37.206135,29 C37.206135,24.4586634 33.5438929,20.7956042 29.0035694,20.7956042 Z M29.0035694,34.3339284 C26.0694925,34.3339284 23.670831,31.9418721 23.670831,29 C23.670831,26.0581279 26.0623536,23.6660716 29.0035694,23.6660716 C31.9447853,23.6660716 34.3363079,26.0581279 34.3363079,29 C34.3363079,31.9418721 31.9376464,34.3339284 29.0035694,34.3339284 Z M39.4548801,20.4600022 C39.4548801,21.5239317 38.5982153,22.3736472 37.541662,22.3736472 C36.4779699,22.3736472 35.6284439,21.5167913 35.6284439,20.4600022 C35.6284439,19.4032132 36.4851088,18.5463572 37.541662,18.5463572 C38.5982153,18.5463572 39.4548801,19.4032132 39.4548801,20.4600022 Z M44.8875627,22.4022091 C44.7662019,19.8387817 44.1808143,17.5681134 42.3032906,15.6973112 C40.4329057,13.826509 38.162744,13.2409907 35.5998885,13.1124623 C32.9585053,12.9625126 25.0414947,12.9625126 22.4001115,13.1124623 C19.8443949,13.2338503 17.5742331,13.8193685 15.6967094,15.6901707 C13.8191857,17.5609729 13.240937,19.8316412 13.1124373,22.3950686 C12.9625209,25.0370412 12.9625209,32.9558184 13.1124373,35.5977909 C13.2337981,38.1612183 13.8191857,40.4318866 15.6967094,42.3026888 C17.5742331,44.173491 19.837256,44.7590093 22.4001115,44.8875377 C25.0414947,45.0374874 32.9585053,45.0374874 35.5998885,44.8875377 C38.162744,44.7661497 40.4329057,44.1806315 42.3032906,42.3026888 C44.1736754,40.4318866 44.759063,38.1612183 44.8875627,35.5977909 C45.0374791,32.9558184 45.0374791,25.0441816 44.8875627,22.4022091 Z M41.4751813,38.4325561 C40.9183491,39.8320875 39.8403793,40.9102979 38.4340212,41.4743947 C36.3280535,42.3098293 31.3308422,42.1170367 29.0035694,42.1170367 C26.6762967,42.1170367 21.6719465,42.3026888 19.5731177,41.4743947 C18.1738985,40.9174384 17.0959286,39.8392279 16.5319576,38.4325561 C15.6967094,36.3261185 15.889459,31.327792 15.889459,29 C15.889459,26.672208 15.7038483,21.666741 16.5319576,19.5674439 C17.0887897,18.1679125 18.1667596,17.0897021 19.5731177,16.5256053 C21.6790853,15.6901707 26.6762967,15.8829633 29.0035694,15.8829633 C31.3308422,15.8829633 36.3351924,15.6973112 38.4340212,16.5256053 C39.8332404,17.0825616 40.9112103,18.1607721 41.4751813,19.5674439 C42.3104294,21.6738815 42.1176799,26.672208 42.1176799,29 C42.1176799,31.327792 42.3104294,36.333259 41.4751813,38.4325561 Z" id="Shape" fill="#DDDDDD" fill-rule="nonzero"></path>
            <circle id="Oval-Copy-3" stroke="#DDDDDD" cx="29" cy="29" r="29"></circle>
        </g>
    </g>
</svg>