<?xml version="1.0" encoding="UTF-8"?>
<svg width="60px" height="60px" viewBox="0 0 60 60" version="1.1" xmlns="http://www.w3.org/2000/svg" xmlns:xlink="http://www.w3.org/1999/xlink">
    <!-- Generator: Sketch 48.2 (47327) - http://www.bohemiancoding.com/sketch -->
    <title>linkedin-in</title>
    <desc>Created with Sketch.</desc>
    <defs></defs>
    <g id="Footer" stroke="none" stroke-width="1" fill="none" fill-rule="evenodd" transform="translate(-741.000000, -505.000000)">
        <g id="linkedin-in" transform="translate(742.000000, 506.000000)">
            <path d="M21.267351,43 L15.4623968,43 L15.4623968,24.30625 L21.267351,24.30625 L21.267351,43 Z M18.3617496,21.75625 C16.5059139,21.75625 15,20.21875 15,18.3625 C15,16.50625 16.5059139,15 18.3617496,15 C20.2175854,15 21.7234992,16.50625 21.7234992,18.3625 C21.7234992,20.21875 20.2175854,21.75625 18.3617496,21.75625 Z M42.9937514,43 L37.2012944,43 L37.2012944,33.9 C37.2012944,31.73125 37.1575541,28.95 34.183218,28.95 C31.1651417,28.95 30.7027449,31.30625 30.7027449,33.74375 L30.7027449,43 L24.9040393,43 L24.9040393,24.30625 L30.4715465,24.30625 L30.4715465,26.85625 L30.5527784,26.85625 C31.3276054,25.3875 33.2209328,23.8375 36.0453024,23.8375 C41.9189913,23.8375 43,27.70625 43,32.73125 L43,43 L42.9937514,43 Z" id="Shape" fill="#DDDDDD" fill-rule="nonzero"></path>
            <circle id="Oval-Copy-2" stroke="#DDDDDD" cx="29" cy="29" r="29"></circle>
        </g>
    </g>
</svg>