<?xml version="1.0" encoding="UTF-8"?>
<svg width="60px" height="60px" viewBox="0 0 60 60" version="1.1" xmlns="http://www.w3.org/2000/svg" xmlns:xlink="http://www.w3.org/1999/xlink">
    <!-- Generator: Sketch 48.2 (47327) - http://www.bohemiancoding.com/sketch -->
    <title>twitter</title>
    <desc>Created with Sketch.</desc>
    <defs></defs>
    <g id="Footer" stroke="none" stroke-width="1" fill="none" fill-rule="evenodd" transform="translate(-651.000000, -505.000000)">
        <g id="twitter" transform="translate(652.000000, 506.000000)">
            <path d="M41.7107372,24.2304461 C41.7310497,24.5038705 41.7310497,24.7773551 41.7310497,25.0507795 C41.7310497,33.3905857 35.1320865,43 23.0711018,43 C19.3553373,43 15.9035738,41.9647987 13,40.1680009 C13.5279396,40.2265575 14.035504,40.2460964 14.5837562,40.2460964 C17.6497057,40.2460964 20.4720917,39.2500331 22.725913,37.5508096 C19.8426517,37.4921929 17.4263923,35.675796 16.593889,33.175778 C17.0000156,33.2343346 17.4060797,33.2734124 17.8325189,33.2734124 C18.4213337,33.2734124 19.010211,33.1952568 19.5584006,33.0586047 C16.5533264,32.4726179 14.2994426,29.9335821 14.2994426,26.8671763 L14.2994426,26.7890808 C15.1725085,27.2578342 16.187825,27.5507975 17.2638917,27.5898152 C15.4973848,26.4569795 14.3400677,24.5234094 14.3400677,22.3358936 C14.3400677,21.1640402 14.6648815,20.0898213 15.2334462,19.1523145 C18.4618963,22.980437 23.3147278,25.480395 28.7563115,25.7538795 C28.6548112,25.2851261 28.5938734,24.796894 28.5938734,24.3086017 C28.5938734,20.8319991 31.5177598,18 35.152274,18 C37.0405939,18 38.7461631,18.7617167 39.9441678,19.9921868 C41.426361,19.7187624 42.8476791,19.1913923 44.1066215,18.4687534 C43.6192446,19.9336302 42.5837406,21.1641004 41.2233602,21.9452959 C42.5431779,21.8086438 43.8223704,21.4570036 45,20.9687714 C44.1067465,22.2187203 42.9899296,23.331957 41.7107372,24.2304461 Z" id="Shape" fill="#DDDDDD" fill-rule="nonzero"></path>
            <circle id="Oval-Copy" stroke="#DDDDDD" cx="29" cy="29" r="29"></circle>
        </g>
    </g>
</svg>